HIERARCHY
ROOT Hips
{
    OFFSET 0.000000 0.000000 0.000000
    CHANNELS 6 Xposition Yposition Zposition Zrotation Xrotation Yrotation
    JOINT Spine
    {
        OFFSET -0.000000 7.236184 0.000000
        CHANNELS 3 Zrotation Xrotation Yrotation
        JOINT Spine1
        {
            OFFSET -0.000000 20.420147 0.000000
            CHANNELS 3 Zrotation Xrotation Yrotation
            JOINT Neck
            {
                OFFSET -0.000000 20.336288 1.848754
                CHANNELS 3 Zrotation Xrotation Yrotation
                JOINT Head
                {
                    OFFSET -0.000000 12.354461 -1.764923
                    CHANNELS 3 Zrotation Xrotation Yrotation
                    End Site
                    {
                        OFFSET -0.000000 22.061537 0.000000
                    }
                }
            }
            JOINT LeftShoulder
            {
                OFFSET 3.573296 18.396038 -0.314103
                CHANNELS 3 Zrotation Xrotation Yrotation
                JOINT LeftArm
                {
                    OFFSET 10.880760 0.000000 0.000000
                    CHANNELS 3 Zrotation Xrotation Yrotation
                    JOINT LeftForeArm
                    {
                        OFFSET 27.185530 0.000000 0.000000
                        CHANNELS 3 Zrotation Xrotation Yrotation
                        JOINT LeftHand
                        {
                            OFFSET 27.825975 0.000000 0.000000
                            CHANNELS 3 Zrotation Xrotation Yrotation
                            End Site
                            {
                                OFFSET 13.236923 0.000000 0.000000
                            }
                        }
                    }
                }
            }
            JOINT RightShoulder
            {
                OFFSET -3.474926 18.396038 -0.314103
                CHANNELS 3 Zrotation Xrotation Yrotation
                JOINT RightArm
                {
                    OFFSET -10.880760 0.000000 0.000000
                    CHANNELS 3 Zrotation Xrotation Yrotation
                    JOINT RightForeArm
                    {
                        OFFSET -27.185530 0.000000 0.000000
                        CHANNELS 3 Zrotation Xrotation Yrotation
                        JOINT RightHand
                        {
                            OFFSET -27.825975 0.000000 0.000000
                            CHANNELS 3 Zrotation Xrotation Yrotation
                            End Site
                            {
                                OFFSET -13.236923 0.000000 0.000000
                            }
                        }
                    }
                }
            }
        }
    }
    JOINT LeftUpLeg
    {
        OFFSET 8.824615 0.000000 0.000000
        CHANNELS 3 Zrotation Xrotation Yrotation
        JOINT LeftLeg
        {
            OFFSET -0.000000 -35.111282 0.000000
            CHANNELS 3 Zrotation Xrotation Yrotation
            JOINT LeftFoot
            {
                OFFSET -0.000000 -42.324711 0.000000
                CHANNELS 3 Zrotation Xrotation Yrotation
                JOINT LeftToeBase
                {
                    OFFSET -0.000000 -5.735999 13.236923
                    CHANNELS 3 Zrotation Xrotation Yrotation
                    End Site
                    {
                        OFFSET -0.000000 0.000000 3.529846
                    }
                }
            }
        }
    }
    JOINT RightUpLeg
    {
        OFFSET -8.824615 0.000000 0.000000
        CHANNELS 3 Zrotation Xrotation Yrotation
        JOINT RightLeg
        {
            OFFSET -0.000000 -35.111282 0.000000
            CHANNELS 3 Zrotation Xrotation Yrotation
            JOINT RightFoot
            {
                OFFSET -0.000000 -42.324711 0.000000
                CHANNELS 3 Zrotation Xrotation Yrotation
                JOINT RightToeBase
                {
                    OFFSET -0.000000 -5.735999 13.236923
                    CHANNELS 3 Zrotation Xrotation Yrotation
                    End Site
                    {
                        OFFSET -0.000000 0.000000 3.529846
                    }
                }
            }
        }
    }
}
MOTION
Frames:    8
Frame Time:    0.008333
-3.403329    74.715843    117.130196    -0.410031    -9.695117    177.807480    -0.420872    -2.951458    1.297742    0.314850    3.962080    1.297703    2.288981    -0.163916    -1.965626    5.205140    -24.159706    -0.583845    -1.596020    18.248604    -4.488554    -27.443119    51.081909    -59.153866    7.661489    -6.724044    -23.689943    19.245461    -5.392336    -1.593070    7.496430    18.035484    -2.634921    20.069229    51.904884    59.139076    -10.809136    -10.933476    35.048798    -16.812458    -8.026193    3.225417    -3.397756    -39.877850    -6.763338    4.088007    64.279327    9.380276    -9.199466    -11.690153    -19.286600    -0.889750    -9.232169    1.004290    -2.056779    -39.172382    0.399896    10.981561    63.395432    -1.066391    3.944366    -8.123485    -13.041144    -0.168239    -14.209237    0.186096    
-3.373440    74.645424    117.171349    -0.339044    -9.781825    177.864838    -0.460635    -2.944751    1.266823    0.454354    4.053895    1.262590    2.251471    -0.213911    -1.943214    5.183014    -24.495827    -0.548882    -1.619622    18.220972    -4.556624    -27.328470    51.068134    -59.162132    7.785817    -6.434244    -23.662027    19.493916    -5.101446    -1.710976    7.469919    18.050556    -2.590045    19.797781    51.859692    59.267197    -10.885256    -10.606619    35.035538    -16.780807    -7.689378    3.337077    -3.400756    -40.181351    -6.353659    5.231871    64.547829    8.126586    -9.168372    -11.717048    -19.243132    -0.910714    -9.240200    1.027971    -1.860749    -39.392281    0.438604    10.946179    63.599831    -0.998022    3.707815    -8.102324    -13.387115    -0.144009    -14.229171    0.159302    
-3.341895    74.579163    117.202118    -0.267121    -9.853361    177.921432    -0.496968    -2.954227    1.233287    0.585653    4.155756    1.224879    2.220237    -0.241991    -1.918750    5.159728    -24.806219    -0.513904    -1.650247    18.202307    -4.603274    -27.378920    50.976997    -58.999710    7.860429    -6.161005    -23.562939    19.719236    -4.847641    -1.856187    7.460406    18.076744    -2.564167    19.674465    51.762268    59.259304    -10.942890    -10.280077    34.922325    -16.742273    -7.369533    3.452482    -3.405616    -40.421558    -5.975148    6.341811    64.753479    6.932160    -9.137088    -11.790169    -19.206697    -0.938232    -9.228809    1.059007    -1.657163    -39.565220    0.476436    10.900524    63.767921    -0.950202    3.455868    -8.096110    -13.722263    -0.119125    -14.249350    0.131784    
-3.308337    74.516884    117.223000    -0.193415    -9.910830    177.977798    -0.527878    -2.979170    1.197891    0.705453    4.268083    1.185399    2.196040    -0.249200    -1.892736    5.134990    -25.095850    -0.479462    -1.685882    18.193111    -4.626748    -27.588339    50.805626    -58.672554    7.889118    -5.895979    -23.386129    19.920456    -4.622785    -2.031579    7.468871    18.114582    -2.559523    19.694969    51.612015    59.117630    -10.981397    -9.951543    34.704044    -16.699455    -7.065462    3.573055    -3.413861    -40.603611    -5.638703    7.395444    64.903465    5.827158    -9.105794    -11.902970    -19.181938    -0.973065    -9.200558    1.098256    -1.441638    -39.693687    0.520801    10.847372    63.900631    -0.926424    3.189218    -8.102754    -14.049846    -0.092665    -14.269920    0.102520    
-3.273933    74.461884    117.233147    -0.121083    -9.952083    178.031631    -0.551625    -3.018534    1.162962    0.807030    4.386971    1.146653    2.180506    -0.235171    -1.866544    5.108212    -25.356606    -0.447869    -1.725257    18.193897    -4.623102    -27.947086    50.555202    -58.194275    7.874119    -5.644605    -23.130651    20.088644    -4.430660    -2.231389    7.496289    18.161646    -2.579670    19.859594    51.412407    58.843964    -10.997589    -9.633137    34.381973    -16.657286    -6.789989    3.696070    -3.426669    -40.721661    -5.370307    8.320978    64.996574    4.893572    -9.075765    -12.044148    -19.174677    -1.014536    -9.159295    1.144961    -1.220165    -39.772449    0.577762    10.791295    63.991344    -0.930164    2.921041    -8.120867    -14.357279    -0.064842    -14.288835    0.071745    
-3.238483    74.415161    117.232803    -0.050653    -9.978045    178.082611    -0.569333    -3.072893    1.129311    0.891163    4.513330    1.109486    2.172536    -0.200023    -1.840579    5.078691    -25.593023    -0.419344    -1.769194    18.204285    -4.590292    -28.449354    50.220806    -57.569202    7.820372    -5.404162    -22.790796    20.225590    -4.267387    -2.454746    7.541729    18.215979    -2.626656    20.167955    51.159935    58.435265    -10.989330    -9.322666    33.951283    -16.620361    -6.542451    3.824287    -3.444713    -40.778500    -5.179543    9.092415    65.038315    4.162424    -9.046891    -12.205306    -19.187918    -1.062993    -9.107713    1.199514    -0.990522    -39.802742    0.655460    10.734330    64.039421    -0.959537    2.653906    -8.149524    -14.647470    -0.034735    -14.304458    0.038442    
-3.202654    74.379372    117.221916    0.014916    -9.988638    178.128708    -0.582799    -3.141754    1.098361    0.957275    4.644824    1.075562    2.170877    -0.144462    -1.815557    5.046583    -25.802336    -0.394578    -1.818632    18.223408    -4.526913    -29.081926    49.801788    -56.810219    7.732240    -5.180228    -22.367929    20.329063    -4.135838    -2.695237    7.603637    18.274269    -2.701662    20.616507    50.853851    57.892876    -10.953939    -9.025667    33.415436    -16.594355    -6.328566    3.957532    -3.468169    -40.773014    -5.081698    9.662183    65.030762    3.685849    -9.019806    -12.374489    -19.224577    -1.117441    -9.050055    1.260798    -0.756837    -39.783596    0.760009    10.678864    64.041740    -1.008181    2.396615    -8.188084    -14.918401    -0.002131    -14.314452    0.002375    
-3.166171    74.356461    117.200363    0.074347    -9.985023    178.169174    -0.594760    -3.226825    1.070702    1.007610    4.782028    1.045424    2.174236    -0.068427    -1.791335    5.010731    -25.986521    -0.373535    -1.874728    18.250597    -4.431252    -29.843225    49.287827    -55.914215    7.612350    -4.974443    -21.856682    20.401184    -4.036386    -2.950631    7.680664    18.333864    -2.806511    21.212198    50.484238    57.204533    -10.886230    -8.739224    32.767929    -16.585840    -6.147744    4.098771    -3.496796    -40.704449    -5.087764    10.000612    64.974457    3.498733    -8.994473    -12.543431    -19.287720    -1.178106    -8.988057    1.329070    -0.517779    -39.714634    0.898468    10.624158    63.995720    -1.067029    2.151042    -8.237366    -15.176676    0.033597    -14.316637    -0.037149    
